<?xml version="1.0" encoding="utf-8"?>
<!-- Generator: Adobe Illustrator 18.1.0, SVG Export Plug-In . SVG Version: 6.00 Build 0)  -->
<svg version="1.1" id="Layer_1" xmlns="http://www.w3.org/2000/svg" xmlns:xlink="http://www.w3.org/1999/xlink" x="0px" y="0px"
	 viewBox="0 0 30 30" enable-background="new 0 0 30 30" xml:space="preserve">
<line fill="none" stroke="#333333" stroke-width="1.5" stroke-linecap="round" stroke-linejoin="round" stroke-miterlimit="10" x1="6.2" y1="4.4" x2="15" y2="1.1"/>
<line fill="none" stroke="#333333" stroke-width="1.5" stroke-linecap="round" stroke-linejoin="round" stroke-miterlimit="10" x1="23.8" y1="4.4" x2="15" y2="1.1"/>
<polyline fill="none" stroke="#333333" stroke-width="1.5" stroke-linecap="round" stroke-linejoin="round" stroke-miterlimit="10" points="
	15,7.6 23.8,4.4 23.8,7.6 "/>
<line fill="none" stroke="#333333" stroke-width="1.5" stroke-linecap="round" stroke-linejoin="round" stroke-miterlimit="10" x1="6.2" y1="4.4" x2="15" y2="7.6"/>
<path fill="none" stroke="#333333" stroke-width="1.5" stroke-linecap="round" stroke-linejoin="round" stroke-miterlimit="10" d="
	M9.4,5.8V7v2.6c0,0,5.1,4,11.3,0V7V5.8"/>
<path fill="none" stroke="#333333" stroke-width="1.5" stroke-linecap="round" stroke-linejoin="round" stroke-miterlimit="10" d="
	M20.6,9.9c0.3,0.8,0.5,1.6,0.5,2.5c0,3.4-2.7,6.1-6.1,6.1s-6.1-2.7-6.1-6.1c0-0.8,0.2-1.6,0.5-2.3"/>
<path fill="none" stroke="#333333" stroke-width="1.5" stroke-linecap="round" stroke-linejoin="round" stroke-miterlimit="10" d="
	M25.4,28.9c0-5.8-4.7-10.4-10.4-10.4S4.6,23.2,4.6,28.9H25.4z"/>
</svg>
