<?xml version="1.0" encoding="utf-8"?>
<!-- Generator: Adobe Illustrator 19.0.1, SVG Export Plug-In . SVG Version: 6.00 Build 0)  -->
<svg version="1.2" baseProfile="tiny" id="Layer_1" xmlns="http://www.w3.org/2000/svg" xmlns:xlink="http://www.w3.org/1999/xlink"
	 x="0px" y="0px" viewBox="0 0 30 30" xml:space="preserve">
<path fill="none" stroke="#333333" stroke-width="1.5" stroke-linecap="round" stroke-linejoin="round" stroke-miterlimit="10" d="
	M15.1,16.3"/>
<g>
	<path fill="none" stroke="#333333" stroke-width="1.5" stroke-linecap="round" stroke-linejoin="round" stroke-miterlimit="10" d="
		M11.1,19.4c-1,0-1.8-0.8-1.8-1.8s0.8-1.8,1.8-1.8s1.8,0.8,1.8,1.8S12.1,19.4,11.1,19.4"/>
	
		<polyline fill="none" stroke="#333333" stroke-width="1.5" stroke-linecap="round" stroke-linejoin="round" stroke-miterlimit="10" points="
		9.4,21 8.8,21.7 8.8,23.7 8.8,24.7 13.5,24.7 13.5,23.7 13.5,21.7 12.9,21 	"/>
</g>
<path fill="none" stroke="#333333" stroke-width="1.5" stroke-linecap="round" stroke-linejoin="round" stroke-miterlimit="10" d="
	M28.6,9.2"/>
<path fill="none" stroke="#333333" stroke-width="1.5" stroke-linecap="round" stroke-linejoin="round" stroke-miterlimit="10" d="
	M1.4,9.2"/>
<rect x="3.7" y="1" fill="none" stroke="#333333" stroke-width="1.5" stroke-linecap="round" stroke-linejoin="round" stroke-miterlimit="10" width="23" height="27.7"/>
<circle fill="none" stroke="#333333" stroke-miterlimit="10" cx="15.1" cy="8.5" r="4.7"/>
<line fill="none" stroke="#333333" stroke-miterlimit="10" x1="15" y1="4" x2="15" y2="9"/>
<line fill="none" stroke="#333333" stroke-miterlimit="10" x1="15.2" y1="8.6" x2="11.9" y2="12"/>
<line fill="none" stroke="#333333" stroke-miterlimit="10" x1="17" y1="17.5" x2="23.6" y2="17.5"/>
<line fill="none" stroke="#333333" stroke-miterlimit="10" x1="17" y1="20.9" x2="20.1" y2="20.9"/>
<line fill="none" stroke="#333333" stroke-miterlimit="10" x1="17" y1="24.3" x2="23.1" y2="24.3"/>
</svg>
