<?xml version="1.0" encoding="utf-8"?>
<!-- Generator: Adobe Illustrator 19.0.1, SVG Export Plug-In . SVG Version: 6.00 Build 0)  -->
<svg version="1.0" id="Layer_1" xmlns="http://www.w3.org/2000/svg" xmlns:xlink="http://www.w3.org/1999/xlink" x="0px" y="0px"
	 viewBox="0 0 30 30" enable-background="new 0 0 30 30" xml:space="preserve">
<path fill="#333333" d="M84.6,14.6L84.6,14.6z"/>
<path fill="#333333" d="M65.1,14.5L65.1,14.5z"/>
<path fill="#333333" d="M70.4,4.5L70.4,4.5z"/>
<rect x="62" y="2" fill="none" stroke="#333333" stroke-miterlimit="10" width="25.9" height="26.5"/>
<circle fill="none" stroke="#333333" stroke-miterlimit="10" cx="78.1" cy="11.3" r="5.9"/>
<path fill="none" stroke="#333333" stroke-miterlimit="10" d="M78.1,6v5.1c0,0.1,0,0.1,0,0.2c1.5,1,2.9,2.1,4.3,3.3"/>
<line fill="none" stroke="#333333" stroke-miterlimit="10" x1="67.1" y1="18.9" x2="67.1" y2="26.7"/>
<line fill="none" stroke="#333333" stroke-miterlimit="10" x1="70.1" y1="20.2" x2="70.1" y2="26.7"/>
<line fill="none" stroke="#333333" stroke-miterlimit="10" x1="73.2" y1="19.8" x2="73.2" y2="26.7"/>
<line fill="none" stroke="#333333" stroke-miterlimit="10" x1="75.9" y1="26.7" x2="75.9" y2="23.9"/>
<line fill="none" stroke="#333333" stroke-miterlimit="10" x1="78.3" y1="26.7" x2="78.3" y2="20.7"/>
<circle fill="none" stroke="#333333" stroke-width="1.5" stroke-linecap="round" stroke-linejoin="round" stroke-miterlimit="10" cx="97.5" cy="-28.8" r="2.6"/>
<path fill="none" stroke="#333333" stroke-width="1.5" stroke-linecap="round" stroke-linejoin="round" stroke-miterlimit="10" d="
	M92.4-21c0-2.8,2.3-5.1,5.1-5.1s5.1,2.3,5.1,5.1H92.4z"/>
<polyline fill="none" stroke="#333333" stroke-width="1.5" stroke-linecap="round" stroke-linejoin="round" stroke-miterlimit="10" points="
	112.5,-27.7 108.5,-33.6 108.4,-33.9 89.2,-33.9 "/>
<line fill="none" stroke="#333333" stroke-width="1.5" stroke-linecap="round" stroke-linejoin="round" stroke-miterlimit="10" x1="89.2" y1="-33.9" x2="89.2" y2="-6.5"/>
<line fill="none" stroke="#333333" stroke-width="1.5" stroke-linecap="round" stroke-linejoin="round" stroke-miterlimit="10" x1="89.2" y1="-6.1" x2="112.5" y2="-6.1"/>
<line fill="none" stroke="#333333" stroke-width="1.5" stroke-linecap="round" stroke-linejoin="round" stroke-miterlimit="10" x1="112.5" y1="-6.5" x2="112.5" y2="-27.2"/>
<line fill="none" stroke="#333333" stroke-width="1.5" stroke-linecap="round" stroke-linejoin="round" stroke-miterlimit="10" x1="93.7" y1="-16.2" x2="108.8" y2="-16.2"/>
<line fill="none" stroke="#333333" stroke-width="1.5" stroke-linecap="round" stroke-linejoin="round" stroke-miterlimit="10" x1="99.1" y1="-13" x2="108.8" y2="-13"/>
<line fill="none" stroke="#333333" stroke-width="1.5" stroke-linecap="round" stroke-linejoin="round" stroke-miterlimit="10" x1="95.8" y1="-10.1" x2="108.8" y2="-10.1"/>
<rect x="2" y="47.7" fill="none" stroke="#333333" stroke-miterlimit="10" width="18.6" height="23.8"/>
<polyline fill="none" stroke="#333333" stroke-miterlimit="10" points="21.2,50.4 23.5,50.4 23.5,74.1 4.8,74.1 4.8,71.8 "/>
<circle fill="none" stroke="#333333" stroke-miterlimit="10" cx="10" cy="54.6" r="4"/>
<polyline fill="none" stroke="#333333" stroke-miterlimit="10" points="8.4,53.5 10.3,55.4 15.1,50.7 "/>
<polyline fill="none" stroke="#333333" stroke-miterlimit="10" points="11.3,61.6 17.5,61.6 17.5,68.1 11.3,68.1 "/>
<line fill="none" stroke="#333333" stroke-miterlimit="10" x1="13.1" y1="63.2" x2="13.1" y2="66.9"/>
<line fill="none" stroke="#333333" stroke-miterlimit="10" x1="11.6" y1="65" x2="14.6" y2="65"/>
<rect x="31" y="51.4" fill="none" stroke="#333333" stroke-miterlimit="10" width="27.5" height="27.3"/>
<rect x="49.2" y="60.3" fill="none" stroke="#333333" stroke-miterlimit="10" width="5.8" height="5.8"/>
<line fill="none" stroke="#333333" stroke-miterlimit="10" x1="33.6" y1="64.5" x2="40.1" y2="64.5"/>
<line fill="none" stroke="#333333" stroke-miterlimit="10" x1="33.7" y1="67.6" x2="44.5" y2="67.6"/>
<line fill="none" stroke="#333333" stroke-miterlimit="10" x1="33.6" y1="70.8" x2="44.5" y2="70.8"/>
<line fill="none" stroke="#333333" stroke-miterlimit="10" x1="33.5" y1="73.8" x2="44.5" y2="73.8"/>
<line fill="none" stroke="#333333" stroke-miterlimit="10" x1="55.3" y1="69.3" x2="48.8" y2="69.3"/>
<line fill="none" stroke="#333333" stroke-miterlimit="10" x1="31.1" y1="57.2" x2="58.3" y2="57.2"/>
<line fill="none" stroke="#333333" stroke-miterlimit="10" x1="56.7" y1="54.4" x2="55.1" y2="54.4"/>
<circle fill="none" stroke="#333333" stroke-width="1.5" stroke-linecap="round" stroke-linejoin="round" stroke-miterlimit="10" cx="98.5" cy="6.2" r="2.6"/>
<path fill="none" stroke="#333333" stroke-width="1.5" stroke-linecap="round" stroke-linejoin="round" stroke-miterlimit="10" d="
	M93.4,14c0-2.8,2.3-5.1,5.1-5.1s5.1,2.3,5.1,5.1L93.4,14z"/>
<polyline fill="none" stroke="#333333" stroke-width="1.5" stroke-linecap="round" stroke-linejoin="round" stroke-miterlimit="10" points="
	20.7,5.9 26,5.9 26,29 3.2,29 3.2,5.9 8.6,5.9 "/>
<line fill="none" stroke="#333333" stroke-width="1.5" stroke-linecap="round" stroke-linejoin="round" stroke-miterlimit="10" x1="6.6" y1="13" x2="20.9" y2="13"/>
<line fill="none" stroke="#333333" stroke-width="1.5" stroke-linecap="round" stroke-linejoin="round" stroke-miterlimit="10" x1="6.6" y1="16.1" x2="16.3" y2="16.1"/>
<polygon fill="none" stroke="#333333" stroke-width="1.5" stroke-linecap="round" stroke-linejoin="round" stroke-miterlimit="10" points="
	18.5,3.5 20.4,3.5 20.4,9.2 8.8,9.2 8.8,3.5 10.6,3.5 10.6,1.4 17.5,1.4 18.5,1.4 "/>
<line fill="none" stroke="#333333" stroke-width="1.5" stroke-linecap="round" stroke-linejoin="round" stroke-miterlimit="10" x1="13.1" y1="6.3" x2="16.5" y2="6.3"/>
<polyline fill="none" stroke="#333333" stroke-width="1.5" stroke-linecap="round" stroke-linejoin="round" stroke-miterlimit="10" points="
	19.2,24.5 19.2,18.3 22.3,18.3 22.4,21.1 19.2,21.1 "/>
</svg>
