<?xml version="1.0" encoding="utf-8"?>
<!-- Generator: Adobe Illustrator 18.1.0, SVG Export Plug-In . SVG Version: 6.00 Build 0)  -->
<svg version="1.1" id="Layer_1" xmlns="http://www.w3.org/2000/svg" xmlns:xlink="http://www.w3.org/1999/xlink" x="0px" y="0px"
	 viewBox="0 0 30 30" enable-background="new 0 0 30 30" xml:space="preserve">
<g>
	<path fill="none" stroke="#333333" stroke-width="1.5" stroke-linecap="round" stroke-linejoin="round" stroke-miterlimit="10" d="
		M12,23.3l-7.8-7.8c-0.3-0.3-0.3-0.8,0-1.1l7-7c0.3-0.3,0.8-0.3,1.1,0l7.8,7.8c0.3,0.3,0.3,0.8,0,1.1l-7,7
		C12.7,23.6,12.3,23.6,12,23.3z"/>
	<path fill="none" stroke="#333333" stroke-width="1.5" stroke-linecap="round" stroke-linejoin="round" stroke-miterlimit="10" d="
		M18.1,18.3l7.3,7.3c0.9,0.9,0.9,2.2,0,3.1l0,0c-1.6,0-2.1,0-3.1,0l-0.5-1.5l-1.6-0.6l-1-1l-0.1-2.3l-2.3-0.1L15,21.4"/>
	<path fill="none" stroke="#333333" stroke-width="1.5" stroke-linecap="round" stroke-linejoin="round" stroke-miterlimit="10" d="
		M9.3,13.9l1.4-1.4"/>
	<path fill="none" stroke="#333333" stroke-width="1.5" stroke-linecap="round" stroke-linejoin="round" stroke-miterlimit="10" d="
		M12.9,19.5l3.3-3.3"/>
	<path fill="none" stroke="#333333" stroke-width="1.5" stroke-linecap="round" stroke-linejoin="round" stroke-miterlimit="10" d="
		M16.1,11.3c1-1.1,1.6-2.5,1.6-4.1c0-3.3-2.7-6-6-6s-6,2.7-6,6c0,2.8,1.9,5.1,4.5,5.8"/>
</g>
</svg>
