<?xml version="1.0" encoding="utf-8"?>
<!-- Generator: Adobe Illustrator 18.1.0, SVG Export Plug-In . SVG Version: 6.00 Build 0)  -->
<svg version="1.1" id="Layer_1" xmlns="http://www.w3.org/2000/svg" xmlns:xlink="http://www.w3.org/1999/xlink" x="0px" y="0px"
	 viewBox="0 0 30 30" enable-background="new 0 0 30 30" xml:space="preserve">
<g>
	
		<polygon fill="none" stroke="#333333" stroke-width="1.5" stroke-linecap="round" stroke-linejoin="round" stroke-miterlimit="10" points="
		7.2,24.9 3.3,26.7 5,22.8 16.4,11.4 24.5,3.3 26.7,5.5 18.6,13.6 13.6,18.6 	"/>
	
		<line fill="none" stroke="#333333" stroke-width="1.5" stroke-linecap="round" stroke-linejoin="round" stroke-miterlimit="10" x1="22.2" y1="5.6" x2="24.3" y2="7.8"/>
</g>
<g>
	
		<polyline fill="none" stroke="#333333" stroke-width="1.5" stroke-linecap="round" stroke-linejoin="round" stroke-miterlimit="10" points="
		18.6,13.6 26.8,21.8 21.8,26.8 13.6,18.6 	"/>
	
		<polyline fill="none" stroke="#333333" stroke-width="1.5" stroke-linecap="round" stroke-linejoin="round" stroke-miterlimit="10" points="
		11.4,16.4 3.3,8.4 8.4,3.3 16.4,11.4 	"/>
	
		<line fill="none" stroke="#333333" stroke-width="1.5" stroke-linecap="round" stroke-linejoin="round" stroke-miterlimit="10" x1="5.2" y1="10.3" x2="6.7" y2="8.8"/>
	
		<line fill="none" stroke="#333333" stroke-width="1.5" stroke-linecap="round" stroke-linejoin="round" stroke-miterlimit="10" x1="7.4" y1="12.4" x2="8.8" y2="11"/>
	
		<line fill="none" stroke="#333333" stroke-width="1.5" stroke-linecap="round" stroke-linejoin="round" stroke-miterlimit="10" x1="9.5" y1="14.6" x2="11" y2="13.1"/>
	
		<line fill="none" stroke="#333333" stroke-width="1.5" stroke-linecap="round" stroke-linejoin="round" stroke-miterlimit="10" x1="15.5" y1="20.6" x2="17" y2="19.1"/>
	
		<line fill="none" stroke="#333333" stroke-width="1.5" stroke-linecap="round" stroke-linejoin="round" stroke-miterlimit="10" x1="17.7" y1="22.7" x2="19.1" y2="21.2"/>
	
		<line fill="none" stroke="#333333" stroke-width="1.5" stroke-linecap="round" stroke-linejoin="round" stroke-miterlimit="10" x1="19.8" y1="24.8" x2="21.3" y2="23.4"/>
</g>
<line fill="none" stroke="#333333" stroke-width="1.5" stroke-linecap="round" stroke-linejoin="round" stroke-miterlimit="10" x1="5" y1="22.8" x2="7.2" y2="24.9"/>
</svg>
