<?xml version="1.0" encoding="utf-8"?>
<!-- Generator: Adobe Illustrator 19.0.1, SVG Export Plug-In . SVG Version: 6.00 Build 0)  -->
<svg version="1.0" id="Layer_1" xmlns="http://www.w3.org/2000/svg" xmlns:xlink="http://www.w3.org/1999/xlink" x="0px" y="0px"
	 viewBox="0 0 32 32" enable-background="new 0 0 32 32" xml:space="preserve">
<path fill="none" stroke="#333333" stroke-linecap="round" stroke-linejoin="round" stroke-miterlimit="10" d="M10.1,17.4h11.8V24
	c0,1.9-1.5,3.4-3.4,3.4h-5.9c-1.4,0-2.5-1.1-2.5-2.5V17.4z"/>
<line fill="none" stroke="#333333" stroke-linecap="round" stroke-linejoin="round" stroke-miterlimit="10" x1="14.1" y1="19.3" x2="14.1" y2="25.3"/>
<line fill="none" stroke="#333333" stroke-linecap="round" stroke-linejoin="round" stroke-miterlimit="10" x1="14.4" y1="22.5" x2="16.9" y2="22.5"/>
<line fill="none" stroke="#333333" stroke-linecap="round" stroke-linejoin="round" stroke-miterlimit="10" x1="14.3" y1="19.2" x2="16.8" y2="19.2"/>
<path fill="none" stroke="#333333" stroke-linecap="round" stroke-linejoin="round" stroke-miterlimit="10" d="M17.1,22.4
	c0.8-0.9,0.8-2.5-0.2-3.2"/>
<circle fill="none" stroke="#333333" stroke-width="1.5" stroke-linecap="round" stroke-linejoin="round" stroke-miterlimit="10" cx="16.2" cy="6.4" r="2.4"/>
<path fill="none" stroke="#333333" stroke-width="1.5" stroke-linecap="round" stroke-linejoin="round" stroke-miterlimit="10" d="
	M11.4,13.6c0-2.6,2.1-4.8,4.8-4.8s4.8,2.1,4.8,4.8L11.4,13.6z"/>
<rect x="4.1" y="1.4" fill="none" stroke="#333333" stroke-linecap="round" stroke-linejoin="round" stroke-miterlimit="10" width="22.9" height="29.2"/>
<line fill="none" stroke="#333333" stroke-linecap="round" stroke-linejoin="round" stroke-miterlimit="10" x1="5.8" y1="5.5" x2="2.8" y2="5.5"/>
<line fill="none" stroke="#333333" stroke-linecap="round" stroke-linejoin="round" stroke-miterlimit="10" x1="5.8" y1="15.5" x2="2.8" y2="15.5"/>
<line fill="none" stroke="#333333" stroke-linecap="round" stroke-linejoin="round" stroke-miterlimit="10" x1="5.8" y1="25.5" x2="2.8" y2="25.5"/>
<line fill="none" stroke="#333333" stroke-linecap="round" stroke-linejoin="round" stroke-miterlimit="10" x1="6.3" y1="4.8" x2="6.3" y2="6.1"/>
<line fill="none" stroke="#333333" stroke-linecap="round" stroke-linejoin="round" stroke-miterlimit="10" x1="6.3" y1="14.8" x2="6.3" y2="16.2"/>
<line fill="none" stroke="#333333" stroke-linecap="round" stroke-linejoin="round" stroke-miterlimit="10" x1="6.2" y1="24.4" x2="6.2" y2="26.3"/>
<line fill="none" stroke="#333333" stroke-linecap="round" stroke-linejoin="round" stroke-miterlimit="10" x1="29.6" y1="2.5" x2="29.6" y2="29.1"/>
<line fill="none" stroke="#333333" stroke-linecap="round" stroke-linejoin="round" stroke-miterlimit="10" x1="29.3" y1="2.5" x2="27.2" y2="2.5"/>
<line fill="none" stroke="#333333" stroke-linecap="round" stroke-linejoin="round" stroke-miterlimit="10" x1="29.6" y1="29.1" x2="27.2" y2="29.1"/>
<line fill="none" stroke="#333333" stroke-linecap="round" stroke-linejoin="round" stroke-miterlimit="10" x1="27" y1="8.4" x2="29.4" y2="8.4"/>
<line fill="none" stroke="#333333" stroke-linecap="round" stroke-linejoin="round" stroke-miterlimit="10" x1="27" y1="15.4" x2="29.4" y2="15.4"/>
<line fill="none" stroke="#333333" stroke-linecap="round" stroke-linejoin="round" stroke-miterlimit="10" x1="27" y1="23.4" x2="29.4" y2="23.4"/>
</svg>
