<?xml version="1.0" encoding="utf-8"?>
<!-- Generator: Adobe Illustrator 18.1.0, SVG Export Plug-In . SVG Version: 6.00 Build 0)  -->
<svg version="1.1" id="Layer_1" xmlns="http://www.w3.org/2000/svg" xmlns:xlink="http://www.w3.org/1999/xlink" x="0px" y="0px"
	 viewBox="0 0 30 30" enable-background="new 0 0 30 30" xml:space="preserve">
<g>
	
		<line fill="none" stroke="#333333" stroke-width="1.5" stroke-linecap="round" stroke-linejoin="round" stroke-miterlimit="10" x1="6.1" y1="4.3" x2="1.8" y2="4.3"/>
	
		<line fill="none" stroke="#333333" stroke-width="1.5" stroke-linecap="round" stroke-linejoin="round" stroke-miterlimit="10" x1="6.1" y1="8.6" x2="1.8" y2="8.6"/>
	
		<line fill="none" stroke="#333333" stroke-width="1.5" stroke-linecap="round" stroke-linejoin="round" stroke-miterlimit="10" x1="6.1" y1="26.1" x2="1.8" y2="26.1"/>
	
		<line fill="none" stroke="#333333" stroke-width="1.5" stroke-linecap="round" stroke-linejoin="round" stroke-miterlimit="10" x1="6.1" y1="21.7" x2="1.8" y2="21.7"/>
	
		<line fill="none" stroke="#333333" stroke-width="1.5" stroke-linecap="round" stroke-linejoin="round" stroke-miterlimit="10" x1="6.1" y1="17.4" x2="1.8" y2="17.4"/>
	
		<line fill="none" stroke="#333333" stroke-width="1.5" stroke-linecap="round" stroke-linejoin="round" stroke-miterlimit="10" x1="6.1" y1="13" x2="1.8" y2="13"/>
	<path fill="none" stroke="#333333" stroke-width="1.5" stroke-linecap="round" stroke-linejoin="round" stroke-miterlimit="10" d="
		M7,28.8h16.3c0.8,0,1.5-0.7,1.5-1.5V2.7c0-0.8-0.7-1.5-1.5-1.5H7H4v27.7H7z"/>
	
		<rect x="24.9" y="3.3" fill="none" stroke="#333333" stroke-width="1.5" stroke-linecap="round" stroke-linejoin="round" stroke-miterlimit="10" width="3.3" height="5.9"/>
	
		<rect x="24.9" y="9.2" fill="none" stroke="#333333" stroke-width="1.5" stroke-linecap="round" stroke-linejoin="round" stroke-miterlimit="10" width="3.3" height="5.9"/>
	
		<rect x="24.9" y="15" fill="none" stroke="#333333" stroke-width="1.5" stroke-linecap="round" stroke-linejoin="round" stroke-miterlimit="10" width="3.3" height="5.9"/>
	
		<rect x="24.9" y="20.9" fill="none" stroke="#333333" stroke-width="1.5" stroke-linecap="round" stroke-linejoin="round" stroke-miterlimit="10" width="3.3" height="5.9"/>
	
		<circle fill="none" stroke="#333333" stroke-width="1.5" stroke-linecap="round" stroke-linejoin="round" stroke-miterlimit="10" cx="15.3" cy="11.3" r="3.1"/>
	<path fill="none" stroke="#333333" stroke-width="1.5" stroke-linecap="round" stroke-linejoin="round" stroke-miterlimit="10" d="
		M20.6,19.6c0-2.9-2.3-5.2-5.2-5.2s-5.2,2.3-5.2,5.2H20.6z"/>
</g>
</svg>
