<?xml version="1.0" encoding="utf-8"?>
<!-- Generator: Adobe Illustrator 19.0.1, SVG Export Plug-In . SVG Version: 6.00 Build 0)  -->
<svg version="1.1" id="Layer_1" xmlns="http://www.w3.org/2000/svg" xmlns:xlink="http://www.w3.org/1999/xlink" x="0px" y="0px"
	 viewBox="0 0 36 36" style="enable-background:new 0 0 36 36;" xml:space="preserve">
<style type="text/css">
	.st0{display:none;}
	.st1{display:inline;fill:#333333;}
	.st2{fill:none;stroke:#333333;stroke-width:1.5;stroke-linecap:round;stroke-linejoin:round;stroke-miterlimit:10;}
</style>
<g id="Layer_1_1_" class="st0">
	<path class="st1" d="M34.5,29L34.5,29c0,2-1.6,3.6-3.6,3.6l0,0h-26l0,0c-2,0-3.6-1.6-3.6-3.6V8c0-1.6,1.3-2.9,2.9-2.9l0,0h14.6
		L24.6,3c0.4-0.1,0.8,0.1,0.9,0.4l0.6,1.7h2.6c1.6,0,2.9,1.3,2.9,2.9v1.4l0,0c1.6,0,2.9,1.3,2.9,2.9V29z M4.1,6.6L4.1,6.6
		C3.3,6.6,2.7,7.2,2.7,8s0.6,1.4,1.4,1.4h2.5l0,0h0.1l0,0l7.9-2.9H4.1V6.6z M25.2,6.7l-0.8-2.1l0,0l0,0l-1.5,0.5l0,0l-4,1.4l0,0
		l-8,2.9h15.2L25.2,6.7z M30.2,8.1c0-0.8-0.6-1.4-1.4-1.4h-2.1l1.1,2.9h2.5l0,0V8.1H30.2z M31.6,11H4.1l0,0c-0.5,0-1-0.2-1.4-0.4V29
		c0,1.2,1,2.2,2.2,2.2h26c1.2,0,2.2-1,2.2-2.2v-5h-2.9c-1.6,0-2.9-1.3-2.9-2.9s1.3-2.9,2.9-2.9h2.9v-5.8C33.1,11.6,32.4,11,31.6,11z
		 M33.1,22.5v-2.9h-2.9c-0.8,0-1.4,0.6-1.4,1.4s0.6,1.4,1.4,1.4h2.9V22.5z M30.2,20.4h1.4v1.4h-1.4V20.4z"/>
</g>
<g id="Layer_2">
	<path class="st2" d="M32.8,31.1H3.5c-0.9,0-1.7-0.7-1.7-1.7V10.8c0-0.9,0.7-1.7,1.7-1.7h29.3c0.9,0,1.7,0.7,1.7,1.7v18.6
		C34.4,30.3,33.7,31.1,32.8,31.1z"/>
	<line class="st2" x1="27.3" y1="8.9" x2="25" y2="2.8"/>
	<line class="st2" x1="25" y1="2.8" x2="9.1" y2="9"/>
	<path class="st2" d="M26,5.3h4.6c0.8,0,1.4,0.6,1.4,1.3l0.2,2.5"/>
	<path class="st2" d="M17,5.5H4.1C2.9,5.5,2,6.1,2,6.9v3"/>
	<path class="st2" d="M30.9,20.8c0,0.9-0.8,1.7-1.7,1.7s-1.7-0.8-1.7-1.7s0.8-1.7,1.7-1.7S30.9,19.8,30.9,20.8"/>
	<path class="st2" d="M33.8,24.5h-7.3c-3.3-4.1,0-7.6,0-7.6H34"/>
</g>
</svg>
