<?xml version="1.0" encoding="utf-8"?>
<!-- Generator: Adobe Illustrator 19.0.1, SVG Export Plug-In . SVG Version: 6.00 Build 0)  -->
<svg version="1.1" id="Layer_1" xmlns="http://www.w3.org/2000/svg" xmlns:xlink="http://www.w3.org/1999/xlink" x="0px" y="0px"
	 viewBox="0 0 36 36" style="enable-background:new 0 0 36 36;" xml:space="preserve">
<style type="text/css">
	.st0{display:none;}
	.st1{display:inline;fill:#333333;}
	.st2{fill:none;stroke:#333333;stroke-width:1.5;stroke-linecap:round;stroke-linejoin:round;stroke-miterlimit:10;}
</style>
<g id="Layer_1_1_" class="st0">
	<path class="st1" d="M34.5,29L34.5,29c0,2-1.6,3.6-3.6,3.6l0,0h-26l0,0c-2,0-3.6-1.6-3.6-3.6V8c0-1.6,1.3-2.9,2.9-2.9l0,0h14.6
		L24.6,3c0.4-0.1,0.8,0.1,0.9,0.4l0.6,1.7h2.6c1.6,0,2.9,1.3,2.9,2.9v1.4l0,0c1.6,0,2.9,1.3,2.9,2.9V29z M4.1,6.6L4.1,6.6
		C3.3,6.6,2.7,7.2,2.7,8s0.6,1.4,1.4,1.4h2.5l0,0h0.1l0,0l7.9-2.9H4.1V6.6z M25.2,6.7l-0.8-2.1l0,0l0,0l-1.5,0.5l0,0l-4,1.4l0,0
		l-8,2.9h15.2L25.2,6.7z M30.2,8.1c0-0.8-0.6-1.4-1.4-1.4h-2.1l1.1,2.9h2.5l0,0V8.1H30.2z M31.6,11H4.1l0,0c-0.5,0-1-0.2-1.4-0.4V29
		c0,1.2,1,2.2,2.2,2.2h26c1.2,0,2.2-1,2.2-2.2v-5h-2.9c-1.6,0-2.9-1.3-2.9-2.9s1.3-2.9,2.9-2.9h2.9v-5.8C33.1,11.6,32.4,11,31.6,11z
		 M33.1,22.5v-2.9h-2.9c-0.8,0-1.4,0.6-1.4,1.4s0.6,1.4,1.4,1.4h2.9V22.5z M30.2,20.4h1.4v1.4h-1.4V20.4z"/>
</g>
<g id="Layer_2">
	<line class="st2" x1="31.5" y1="2.9" x2="31.5" y2="30.7"/>
	<g>
		<polyline class="st2" points="8.1,6.2 5.1,2.8 5.1,2.8 5.1,30.9 		"/>
		<line class="st2" x1="8.1" y1="6.2" x2="11.3" y2="3"/>
		<line class="st2" x1="11.3" y1="3" x2="14.3" y2="6.3"/>
		<line class="st2" x1="14.3" y1="6.3" x2="17.3" y2="3"/>
		<line class="st2" x1="17.3" y1="3" x2="21.1" y2="6.3"/>
		<line class="st2" x1="21.1" y1="6.3" x2="24" y2="3.3"/>
		<line class="st2" x1="24" y1="3.3" x2="27.3" y2="6.4"/>
		<line class="st2" x1="27.3" y1="6.4" x2="31.5" y2="2.9"/>
	</g>
	<g>
		<line class="st2" x1="31.5" y1="30.7" x2="28.6" y2="34"/>
		<line class="st2" x1="28.6" y1="34" x2="25.4" y2="31"/>
		<line class="st2" x1="25.4" y1="31" x2="22.4" y2="34.2"/>
		<line class="st2" x1="22.4" y1="34.2" x2="19.4" y2="31"/>
		<line class="st2" x1="19.4" y1="31" x2="15.6" y2="34.1"/>
		<line class="st2" x1="15.6" y1="34.1" x2="12.7" y2="31.2"/>
		<line class="st2" x1="12.7" y1="31.2" x2="9.3" y2="34.2"/>
		<line class="st2" x1="9.3" y1="34.2" x2="5.1" y2="30.9"/>
	</g>
	<g>
		<path class="st2" d="M14,20h-3.7c-0.5,0-0.8,0.4-0.8,0.8V22c0,0.5,0.4,0.8,0.8,0.8h2.8c0.5,0,0.8,0.4,0.8,0.8v1.1
			c0,0.5-0.4,0.8-0.8,0.8H9.5"/>
		<line class="st2" x1="11.8" y1="25.5" x2="11.8" y2="26.9"/>
		<line class="st2" x1="11.8" y1="18.6" x2="11.8" y2="19.9"/>
	</g>
	<line class="st2" x1="16" y1="11.8" x2="27.9" y2="11.8"/>
	<line class="st2" x1="14" y1="14.6" x2="27.9" y2="14.6"/>
	<line class="st2" x1="18.8" y1="18.3" x2="27.9" y2="18.3"/>
	<line class="st2" x1="21" y1="22.2" x2="27.9" y2="22.2"/>
</g>
</svg>
