<?xml version="1.0" encoding="utf-8"?>
<!-- Generator: Adobe Illustrator 19.0.1, SVG Export Plug-In . SVG Version: 6.00 Build 0)  -->
<svg version="1.2" baseProfile="tiny" id="Layer_1" xmlns="http://www.w3.org/2000/svg" xmlns:xlink="http://www.w3.org/1999/xlink"
	 x="0px" y="0px" viewBox="0 0 30 30" xml:space="preserve">
<path fill="none" stroke="#333333" stroke-width="1.5" stroke-linecap="round" stroke-linejoin="round" stroke-miterlimit="10" d="
	M28.6,9.2"/>
<path fill="none" stroke="#333333" stroke-width="1.5" stroke-linecap="round" stroke-linejoin="round" stroke-miterlimit="10" d="
	M1.4,9.2"/>
<rect x="1.7" y="1" fill="none" stroke="#333333" stroke-width="1.5" stroke-linecap="round" stroke-linejoin="round" stroke-miterlimit="10" width="26.1" height="27.7"/>
<path fill="#333333" d="M41.2,19.7h0.3c0.2,0,0.5,0.2,0.5,0.5s-0.2,0.5-0.5,0.5h-0.3c-0.2,0-0.5-0.2-0.5-0.5S40.9,19.7,41.2,19.7z
	 M39.9,18.8h0.5c0.2,0,0.5-0.2,0.5-0.5s-0.2-0.5-0.5-0.5h-0.5c-0.2,0-0.5,0.2-0.5,0.5S39.7,18.8,39.9,18.8z M42.2,18.8h0.5
	c0.2,0,0.5-0.2,0.5-0.5s-0.2-0.5-0.5-0.5h-0.5c-0.2,0-0.5,0.2-0.5,0.5S41.9,18.8,42.2,18.8z M47.8,18.2c0,0,0.1,0.1,0.1,0.1
	c0.1,0,0.1,0,0.2,0c0,0,0,0,0,0c0.1,0,0.1,0,0.2,0c0,0,0.1-0.1,0.1-0.1c0,0,0.1-0.1,0.1-0.1l1.9-3.3c0.1-0.2,0.1-0.5-0.2-0.6
	c-0.2-0.1-0.5-0.1-0.6,0.2L48.1,17l-0.6-0.9c-0.1-0.2-0.4-0.3-0.6-0.2c-0.2,0.1-0.3,0.4-0.2,0.6L47.8,18.2
	C47.8,18.2,47.8,18.2,47.8,18.2z M51.3,12.1H46c-1.1,0-1.9,0.9-1.9,1.9c0,0.2,0.2,0.5,0.5,0.5c0.2,0,0.5-0.2,0.5-0.4
	c0-0.6,0.5-1,1-1h5.3c0.6,0,1.1,0.5,1.1,1v4.4c0,0.6-0.5,1-1.1,1h-4.4c-0.1,0-0.3,0.1-0.4,0.2l-1.5,2c-0.1,0.2-0.1,0.5,0.1,0.6
	c0.1,0.1,0.2,0.1,0.3,0.1c0.1,0,0.3-0.1,0.4-0.2l1.4-1.8h4.2c1.1,0,2-0.9,2-1.9v-4.4C53.2,13,52.3,12.1,51.3,12.1z M47.5,30.9
	l-1.3-5.5c-0.3-1.2-1.7-2.2-3.3-2.2h-0.1c-0.2,0-0.4,0.1-0.4,0.3c-0.1,0.3-0.5,0.6-1.1,0.6c-0.6,0-1-0.3-1.1-0.6
	c-0.1-0.2-0.2-0.3-0.4-0.3h-0.1c-1.5,0-3,1-3.3,2.2l-1.3,5.5c0,0,0,0,0,0.1c0,0.1,0,0.1,0,0.2c0,0,0,0.1,0.1,0.1
	c0.1,0.1,0.1,0.1,0.2,0.2c0,0,0,0,0.1,0c0,0,0.1,0,0.1,0h3.8c0.2,0,0.5-0.2,0.5-0.5s-0.2-0.5-0.5-0.5h-3.2l1.2-4.9
	c0.2-0.8,1.2-1.4,2.2-1.5c0.3,0.6,1.1,0.9,1.8,0.9c0.8,0,1.5-0.4,1.8-0.9c1,0.1,2,0.7,2.2,1.5l1.2,4.9h-3.2c-0.2,0-0.5,0.2-0.5,0.5
	c0,0.2,0.2,0.5,0.5,0.5h3.8c0,0,0,0,0,0c0,0,0.1,0,0.1,0c0,0,0,0,0,0c0.1,0,0.2-0.1,0.2-0.2c0,0,0-0.1,0.1-0.1
	C47.5,31.1,47.5,31.1,47.5,30.9C47.5,31,47.5,31,47.5,30.9z M36.8,18c0-0.2,0.2-0.5,0.4-0.5c0.1,0,0.2,0,0.2,0
	c0.4-1.7,2-3.1,3.8-3.1c1,0,1.9,0.4,2.6,1c0,0,0,0,0.1,0c0,0,0,0,0,0c0.6,0.5,1,1.2,1.1,2c0.1,0,0.1,0,0.2,0c0.2,0,0.4,0.2,0.4,0.5
	l-0.1,0.7c0,0.2-0.2,0.4-0.5,0.4c0,0,0,0,0,0c-0.3,1.8-1.9,3.2-3.9,3.2c-1.9,0-3.5-1.4-3.9-3.2c0,0,0,0,0,0c-0.3,0-0.5-0.2-0.5-0.4
	L36.8,18z M42.9,15.9c-0.5-0.3-1-0.5-1.6-0.5c-1.7,0-3,1.4-3,3c0,1.7,1.4,3,3,3c1.7,0,3-1.4,3-3c0-0.7-0.3-1.4-0.7-1.9"/>
<circle fill="none" stroke="#333333" stroke-linecap="round" stroke-linejoin="round" stroke-miterlimit="10" cx="14.9" cy="7.2" r="2.7"/>
<path fill="none" stroke="#333333" stroke-linecap="round" stroke-linejoin="round" stroke-miterlimit="10" d="M19.5,14.5
	c0-2.5-2-4.5-4.5-4.5s-4.5,2-4.5,4.5H19.5z"/>
<line fill="none" stroke="#333333" stroke-linecap="round" stroke-linejoin="round" stroke-miterlimit="10" x1="7" y1="19.4" x2="23.2" y2="19.4"/>
<line fill="none" stroke="#333333" stroke-linecap="round" stroke-linejoin="round" stroke-miterlimit="10" x1="7" y1="23.8" x2="23.3" y2="23.8"/>
<line fill="none" stroke="#333333" stroke-linecap="round" stroke-linejoin="round" stroke-miterlimit="10" x1="6.8" y1="19.5" x2="6.8" y2="23.5"/>
<line fill="none" stroke="#333333" stroke-linecap="round" stroke-linejoin="round" stroke-miterlimit="10" x1="23.2" y1="19.4" x2="23.2" y2="23.8"/>
</svg>
