<?xml version="1.0" encoding="utf-8"?>
<!-- Generator: Adobe Illustrator 18.1.0, SVG Export Plug-In . SVG Version: 6.00 Build 0)  -->
<svg version="1.1" id="Layer_1" xmlns="http://www.w3.org/2000/svg" xmlns:xlink="http://www.w3.org/1999/xlink" x="0px" y="0px"
	 viewBox="0 0 30 30" enable-background="new 0 0 30 30" xml:space="preserve">
<path fill="none" stroke="#000000" stroke-width="1.5" stroke-linecap="round" stroke-linejoin="round" stroke-miterlimit="10" d="
	M27.1,27.6H2.9c-0.8,0-1.5-0.7-1.5-1.5V4.6c0-0.8,0.7-1.5,1.5-1.5h24.3c0.8,0,1.5,0.7,1.5,1.5v21.5C28.6,26.9,28,27.6,27.1,27.6z"/>
<line fill="none" stroke="#000000" stroke-width="1.5" stroke-linecap="round" stroke-linejoin="round" stroke-miterlimit="10" x1="1.4" y1="8.6" x2="28.2" y2="8.6"/>
<g>
	
		<rect x="5.3" y="12" fill="none" stroke="#000000" stroke-width="1.5" stroke-linecap="round" stroke-linejoin="round" stroke-miterlimit="10" width="4.4" height="4.4"/>
	
		<rect x="12.8" y="12" fill="none" stroke="#000000" stroke-width="1.5" stroke-linecap="round" stroke-linejoin="round" stroke-miterlimit="10" width="4.4" height="4.4"/>
	
		<rect x="20.3" y="12" fill="none" stroke="#000000" stroke-width="1.5" stroke-linecap="round" stroke-linejoin="round" stroke-miterlimit="10" width="4.4" height="4.4"/>
</g>
<g>
	
		<rect x="5.3" y="19.2" fill="none" stroke="#000000" stroke-width="1.5" stroke-linecap="round" stroke-linejoin="round" stroke-miterlimit="10" width="4.4" height="4.4"/>
	
		<rect x="12.8" y="19.2" fill="none" stroke="#000000" stroke-width="1.5" stroke-linecap="round" stroke-linejoin="round" stroke-miterlimit="10" width="4.4" height="4.4"/>
	
		<rect x="20.3" y="19.2" fill="none" stroke="#000000" stroke-width="1.5" stroke-linecap="round" stroke-linejoin="round" stroke-miterlimit="10" width="4.4" height="4.4"/>
</g>
<g>
	
		<line fill="none" stroke="#000000" stroke-width="1.5" stroke-linecap="round" stroke-linejoin="round" stroke-miterlimit="10" x1="9" y1="1.2" x2="9" y2="5"/>
	
		<line fill="none" stroke="#000000" stroke-width="1.5" stroke-linecap="round" stroke-linejoin="round" stroke-miterlimit="10" x1="21" y1="1.2" x2="21" y2="5"/>
</g>
</svg>
