<?xml version="1.0" encoding="utf-8"?>
<!-- Generator: Adobe Illustrator 18.1.0, SVG Export Plug-In . SVG Version: 6.00 Build 0)  -->
<svg version="1.1" id="Layer_1" xmlns="http://www.w3.org/2000/svg" xmlns:xlink="http://www.w3.org/1999/xlink" x="0px" y="0px"
	 viewBox="0 0 30 30" enable-background="new 0 0 30 30" xml:space="preserve">
<circle fill="none" stroke="#333333" stroke-width="1.5" stroke-linecap="round" stroke-linejoin="round" stroke-miterlimit="10" cx="6.8" cy="11.7" r="3.4"/>
<path fill="none" stroke="#333333" stroke-width="1.5" stroke-linecap="round" stroke-linejoin="round" stroke-miterlimit="10" d="
	M12.6,20.9c0-3.2-2.6-5.8-5.8-5.8S1,17.7,1,20.9H12.6z"/>
<circle fill="none" stroke="#333333" stroke-width="1.5" stroke-linecap="round" stroke-linejoin="round" stroke-miterlimit="10" cx="23.4" cy="11.7" r="3.4"/>
<path fill="none" stroke="#333333" stroke-width="1.5" stroke-linecap="round" stroke-linejoin="round" stroke-miterlimit="10" d="
	M29.2,20.9c0-3.2-2.6-5.8-5.8-5.8s-5.8,2.6-5.8,5.8H29.2z"/>
<path fill="none" stroke="#333333" stroke-width="1.5" stroke-linecap="round" stroke-linejoin="round" stroke-miterlimit="10" d="
	M12.5,14.2c0.7-0.6,1.1-1.5,1.1-2.5c0-1-0.4-1.8-1-2.5"/>
<path fill="none" stroke="#333333" stroke-width="1.5" stroke-linecap="round" stroke-linejoin="round" stroke-miterlimit="10" d="
	M17.8,9.2c-0.7,0.6-1.1,1.5-1.1,2.5c0,1,0.4,1.8,1,2.5"/>
</svg>
