<?xml version="1.0" encoding="utf-8"?>
<!-- Generator: Adobe Illustrator 18.1.0, SVG Export Plug-In . SVG Version: 6.00 Build 0)  -->
<svg version="1.1" id="Layer_1" xmlns="http://www.w3.org/2000/svg" xmlns:xlink="http://www.w3.org/1999/xlink" x="0px" y="0px"
	 viewBox="0 0 30 30" enable-background="new 0 0 30 30" xml:space="preserve">
<circle fill="none" stroke="#333333" stroke-width="1.5" stroke-linecap="round" stroke-linejoin="round" stroke-miterlimit="10" cx="15" cy="15" r="3.9"/>
<path fill="none" stroke="#333333" stroke-width="1.5" stroke-linecap="round" stroke-linejoin="round" stroke-miterlimit="10" d="
	M28.4,11.5c-1.6,0.3-3.3-0.4-4.1-1.9c-0.9-1.5-0.6-3.3,0.4-4.5c-1.7-1.6-3.7-2.9-6.1-3.5c-0.5,1.5-2,2.6-3.7,2.6
	c-1.7,0-3.2-1.1-3.7-2.6C9,2.2,6.9,3.4,5.2,5.1c1.1,1.2,1.3,3,0.4,4.5c-0.9,1.5-2.5,2.2-4.1,1.9c-0.3,1.1-0.5,2.3-0.5,3.5
	c0,1.2,0.2,2.4,0.5,3.5c1.6-0.3,3.3,0.4,4.1,1.9c0.9,1.5,0.6,3.3-0.4,4.5c1.7,1.6,3.7,2.9,6.1,3.5c0.5-1.5,2-2.6,3.7-2.6
	c1.7,0,3.2,1.1,3.7,2.6c2.3-0.6,4.4-1.9,6.1-3.5c-1.1-1.2-1.3-3-0.4-4.5c0.9-1.5,2.5-2.2,4.1-1.9c0.3-1.1,0.5-2.3,0.5-3.5
	C28.9,13.8,28.7,12.6,28.4,11.5z"/>
</svg>
