<?xml version="1.0" encoding="utf-8"?>
<!-- Generator: Adobe Illustrator 18.1.0, SVG Export Plug-In . SVG Version: 6.00 Build 0)  -->
<svg version="1.1" id="Layer_1" xmlns="http://www.w3.org/2000/svg" xmlns:xlink="http://www.w3.org/1999/xlink" x="0px" y="0px"
	 viewBox="0 0 30 30" enable-background="new 0 0 30 30" xml:space="preserve">
<g>
	<g>
		<g>
			
				<path fill="none" stroke="#333333" stroke-width="1.5" stroke-linecap="round" stroke-linejoin="round" stroke-miterlimit="10" d="
				M9.2,26c-0.5,0.8-1.4,1.4-2.4,1.4c-1.6,0-2.8-1.3-2.8-2.8s1.3-2.8,2.8-2.8"/>
			
				<polyline fill="none" stroke="#333333" stroke-width="1.5" stroke-linecap="round" stroke-linejoin="round" stroke-miterlimit="10" points="
				6.1,24.2 7,25 8.8,23.2 9.1,22.9 			"/>
		</g>
		
			<line fill="none" stroke="#333333" stroke-width="1.5" stroke-linecap="round" stroke-linejoin="round" stroke-miterlimit="10" x1="13" y1="24.3" x2="25.9" y2="24.3"/>
	</g>
	<g>
		<g>
			
				<path fill="none" stroke="#333333" stroke-width="1.5" stroke-linecap="round" stroke-linejoin="round" stroke-miterlimit="10" d="
				M9.2,16.5c-0.5,0.8-1.4,1.4-2.4,1.4c-1.6,0-2.8-1.3-2.8-2.8s1.3-2.8,2.8-2.8"/>
			
				<polyline fill="none" stroke="#333333" stroke-width="1.5" stroke-linecap="round" stroke-linejoin="round" stroke-miterlimit="10" points="
				6.1,14.7 7,15.6 8.8,13.7 9.1,13.4 			"/>
		</g>
		
			<line fill="none" stroke="#333333" stroke-width="1.5" stroke-linecap="round" stroke-linejoin="round" stroke-miterlimit="10" x1="13" y1="15.1" x2="25.9" y2="15.1"/>
	</g>
	<g>
		<g>
			
				<path fill="none" stroke="#333333" stroke-width="1.5" stroke-linecap="round" stroke-linejoin="round" stroke-miterlimit="10" d="
				M9.2,7.1C8.7,7.9,7.8,8.5,6.7,8.5c-1.6,0-2.8-1.3-2.8-2.8s1.3-2.8,2.8-2.8"/>
			
				<polyline fill="none" stroke="#333333" stroke-width="1.5" stroke-linecap="round" stroke-linejoin="round" stroke-miterlimit="10" points="
				6.1,5.2 7,6.1 8.8,4.2 9.1,3.9 			"/>
		</g>
		
			<line fill="none" stroke="#333333" stroke-width="1.5" stroke-linecap="round" stroke-linejoin="round" stroke-miterlimit="10" x1="13" y1="5.9" x2="25.9" y2="5.9"/>
	</g>
</g>
</svg>
