<?xml version="1.0" encoding="utf-8"?>
<!-- Generator: Adobe Illustrator 18.1.0, SVG Export Plug-In . SVG Version: 6.00 Build 0)  -->
<svg version="1.1" id="Layer_1" xmlns="http://www.w3.org/2000/svg" xmlns:xlink="http://www.w3.org/1999/xlink" x="0px" y="0px"
	 viewBox="0 0 30 30" enable-background="new 0 0 30 30" xml:space="preserve">
<path fill="none" stroke="#333333" stroke-width="1.5" stroke-linecap="round" stroke-linejoin="round" stroke-miterlimit="10" d="
	M14.8,27.7c5.3-1,9.4-5.8,9.4-11.4"/>
<rect x="9.6" y="26.2" fill="none" stroke="#333333" stroke-width="1.5" stroke-linecap="round" stroke-linejoin="round" stroke-miterlimit="10" width="5.2" height="2.9"/>
<rect x="24.2" y="9.6" fill="none" stroke="#333333" stroke-width="1.5" stroke-linecap="round" stroke-linejoin="round" stroke-miterlimit="10" width="4" height="7.1"/>
<path fill="none" stroke="#333333" stroke-width="1.5" stroke-linecap="round" stroke-linejoin="round" stroke-miterlimit="10" d="
	M21.1,10.9c0,4.6-2.3,7.5-3.5,8.5c-1.2,1-3,2.4-3,2.4c-1,0.7-2.1,1.2-3.4,1.3l-0.2,0c-1.3-0.1-2.6-0.5-3.6-1.3c0,0-1.8-1.5-3-2.4
	s-3.5-3.9-3.5-8.5C0.9,5.4,5.4,0.8,11,0.8S21.1,5.4,21.1,10.9"/>
<path fill="none" stroke="#333333" stroke-width="1.5" stroke-linecap="round" stroke-linejoin="round" stroke-miterlimit="10" d="
	M0.9,10.9c0,0,2.3-0.1,3.2-1.9c0,0,7.6,1.8,9.5-3.5c0,0,1.6,4.8,7.4,6.1"/>
</svg>
