<?xml version="1.0" encoding="utf-8"?>
<!-- Generator: Adobe Illustrator 19.0.1, SVG Export Plug-In . SVG Version: 6.00 Build 0)  -->
<svg version="1.0" id="Layer_1" xmlns="http://www.w3.org/2000/svg" xmlns:xlink="http://www.w3.org/1999/xlink" x="0px" y="0px"
	 viewBox="0 0 30 30" enable-background="new 0 0 30 30" xml:space="preserve">
<path fill="#333333" d="M84.6,14.6L84.6,14.6z"/>
<path fill="#333333" d="M65.1,14.5L65.1,14.5z"/>
<path fill="#333333" d="M70.4,4.5L70.4,4.5z"/>
<rect x="62" y="2" fill="none" stroke="#333333" stroke-miterlimit="10" width="25.9" height="26.5"/>
<circle fill="none" stroke="#333333" stroke-miterlimit="10" cx="78.1" cy="11.3" r="5.9"/>
<path fill="none" stroke="#333333" stroke-miterlimit="10" d="M78.1,6v5.1c0,0.1,0,0.1,0,0.2c1.5,1,2.9,2.1,4.3,3.3"/>
<line fill="none" stroke="#333333" stroke-miterlimit="10" x1="67.1" y1="18.9" x2="67.1" y2="26.7"/>
<line fill="none" stroke="#333333" stroke-miterlimit="10" x1="70.1" y1="20.2" x2="70.1" y2="26.7"/>
<line fill="none" stroke="#333333" stroke-miterlimit="10" x1="73.2" y1="19.8" x2="73.2" y2="26.7"/>
<line fill="none" stroke="#333333" stroke-miterlimit="10" x1="75.9" y1="26.7" x2="75.9" y2="23.9"/>
<line fill="none" stroke="#333333" stroke-miterlimit="10" x1="78.3" y1="26.7" x2="78.3" y2="20.7"/>
<circle fill="none" stroke="#333333" stroke-width="1.5" stroke-linecap="round" stroke-linejoin="round" stroke-miterlimit="10" cx="11" cy="6.2" r="2.6"/>
<path fill="none" stroke="#333333" stroke-width="1.5" stroke-linecap="round" stroke-linejoin="round" stroke-miterlimit="10" d="
	M5.9,14c0-2.8,2.3-5.1,5.1-5.1s5.1,2.3,5.1,5.1L5.9,14z"/>
<polyline fill="none" stroke="#333333" stroke-width="1.5" stroke-linecap="round" stroke-linejoin="round" stroke-miterlimit="10" points="
	26,7.3 22,1.4 21.9,1.1 2.7,1.1 "/>
<line fill="none" stroke="#333333" stroke-width="1.5" stroke-linecap="round" stroke-linejoin="round" stroke-miterlimit="10" x1="2.7" y1="1.1" x2="2.7" y2="28.5"/>
<line fill="none" stroke="#333333" stroke-width="1.5" stroke-linecap="round" stroke-linejoin="round" stroke-miterlimit="10" x1="2.7" y1="28.9" x2="26" y2="28.9"/>
<line fill="none" stroke="#333333" stroke-width="1.5" stroke-linecap="round" stroke-linejoin="round" stroke-miterlimit="10" x1="26" y1="28.5" x2="26" y2="7.8"/>
<line fill="none" stroke="#333333" stroke-width="1.5" stroke-linecap="round" stroke-linejoin="round" stroke-miterlimit="10" x1="7.2" y1="18.8" x2="22.3" y2="18.8"/>
<line fill="none" stroke="#333333" stroke-width="1.5" stroke-linecap="round" stroke-linejoin="round" stroke-miterlimit="10" x1="12.6" y1="22" x2="22.3" y2="22"/>
<line fill="none" stroke="#333333" stroke-width="1.5" stroke-linecap="round" stroke-linejoin="round" stroke-miterlimit="10" x1="9.3" y1="24.9" x2="22.3" y2="24.9"/>
</svg>
