<?xml version="1.0" encoding="utf-8"?>
<!-- Generator: Adobe Illustrator 19.0.1, SVG Export Plug-In . SVG Version: 6.00 Build 0)  -->
<svg version="1.0" id="Layer_1" xmlns="http://www.w3.org/2000/svg" xmlns:xlink="http://www.w3.org/1999/xlink" x="0px" y="0px"
	 viewBox="0 0 30 30" enable-background="new 0 0 30 30" xml:space="preserve">
<path fill="#333333" d="M84.6,14.6L84.6,14.6z"/>
<path fill="#333333" d="M65.1,14.5L65.1,14.5z"/>
<path fill="#333333" d="M70.4,4.5L70.4,4.5z"/>
<rect x="62" y="2" fill="none" stroke="#333333" stroke-miterlimit="10" width="25.9" height="26.5"/>
<circle fill="none" stroke="#333333" stroke-miterlimit="10" cx="78.1" cy="11.3" r="5.9"/>
<path fill="none" stroke="#333333" stroke-miterlimit="10" d="M78.1,6v5.1c0,0.1,0,0.1,0,0.2c1.5,1,2.9,2.1,4.3,3.3"/>
<line fill="none" stroke="#333333" stroke-miterlimit="10" x1="67.1" y1="18.9" x2="67.1" y2="26.7"/>
<line fill="none" stroke="#333333" stroke-miterlimit="10" x1="70.1" y1="20.2" x2="70.1" y2="26.7"/>
<line fill="none" stroke="#333333" stroke-miterlimit="10" x1="73.2" y1="19.8" x2="73.2" y2="26.7"/>
<line fill="none" stroke="#333333" stroke-miterlimit="10" x1="75.9" y1="26.7" x2="75.9" y2="23.9"/>
<line fill="none" stroke="#333333" stroke-miterlimit="10" x1="78.3" y1="26.7" x2="78.3" y2="20.7"/>
<circle fill="none" stroke="#333333" stroke-width="1.5" stroke-linecap="round" stroke-linejoin="round" stroke-miterlimit="10" cx="97.5" cy="-28.8" r="2.6"/>
<path fill="none" stroke="#333333" stroke-width="1.5" stroke-linecap="round" stroke-linejoin="round" stroke-miterlimit="10" d="
	M92.4-21c0-2.8,2.3-5.1,5.1-5.1s5.1,2.3,5.1,5.1H92.4z"/>
<polyline fill="none" stroke="#333333" stroke-width="1.5" stroke-linecap="round" stroke-linejoin="round" stroke-miterlimit="10" points="
	112.5,-27.7 108.5,-33.6 108.4,-33.9 89.2,-33.9 "/>
<line fill="none" stroke="#333333" stroke-width="1.5" stroke-linecap="round" stroke-linejoin="round" stroke-miterlimit="10" x1="89.2" y1="-33.9" x2="89.2" y2="-6.5"/>
<line fill="none" stroke="#333333" stroke-width="1.5" stroke-linecap="round" stroke-linejoin="round" stroke-miterlimit="10" x1="89.2" y1="-6.1" x2="112.5" y2="-6.1"/>
<line fill="none" stroke="#333333" stroke-width="1.5" stroke-linecap="round" stroke-linejoin="round" stroke-miterlimit="10" x1="112.5" y1="-6.5" x2="112.5" y2="-27.2"/>
<line fill="none" stroke="#333333" stroke-width="1.5" stroke-linecap="round" stroke-linejoin="round" stroke-miterlimit="10" x1="93.7" y1="-16.2" x2="108.8" y2="-16.2"/>
<line fill="none" stroke="#333333" stroke-width="1.5" stroke-linecap="round" stroke-linejoin="round" stroke-miterlimit="10" x1="99.1" y1="-13" x2="108.8" y2="-13"/>
<line fill="none" stroke="#333333" stroke-width="1.5" stroke-linecap="round" stroke-linejoin="round" stroke-miterlimit="10" x1="95.8" y1="-10.1" x2="108.8" y2="-10.1"/>
<rect x="4" y="1.7" fill="none" stroke="#333333" stroke-miterlimit="10" width="18.6" height="23.8"/>
<polyline fill="none" stroke="#333333" stroke-miterlimit="10" points="23.2,4.4 25.5,4.4 25.5,28.1 6.8,28.1 6.8,25.8 "/>
<circle fill="none" stroke="#333333" stroke-miterlimit="10" cx="12" cy="8.6" r="4"/>
<polyline fill="none" stroke="#333333" stroke-miterlimit="10" points="10.4,7.5 12.3,9.4 17.1,4.7 "/>
<polyline fill="none" stroke="#333333" stroke-miterlimit="10" points="13.3,15.6 19.5,15.6 19.5,22.1 13.3,22.1 "/>
<line fill="none" stroke="#333333" stroke-miterlimit="10" x1="15.1" y1="17.2" x2="15.1" y2="20.9"/>
<line fill="none" stroke="#333333" stroke-miterlimit="10" x1="13.6" y1="19" x2="16.6" y2="19"/>
</svg>
