<?xml version="1.0" encoding="utf-8"?>
<!-- Generator: Adobe Illustrator 18.1.0, SVG Export Plug-In . SVG Version: 6.00 Build 0)  -->
<svg version="1.1" id="Layer_1" xmlns="http://www.w3.org/2000/svg" xmlns:xlink="http://www.w3.org/1999/xlink" x="0px" y="0px"
	 viewBox="0 0 30 30" enable-background="new 0 0 30 30" xml:space="preserve">
<ellipse fill="none" stroke="#333333" stroke-width="1.5" stroke-linecap="round" stroke-linejoin="round" stroke-miterlimit="10" cx="8.5" cy="7" rx="7.4" ry="4"/>
<path fill="none" stroke="#333333" stroke-width="1.5" stroke-linecap="round" stroke-linejoin="round" stroke-miterlimit="10" d="
	M1.1,7.2v3.9c0,2.2,3.3,4,7.4,4s7.4-1.8,7.4-4V7.2"/>
<ellipse transform="matrix(0.2899 0.957 -0.957 0.2899 35.0184 -9.9799)" fill="none" stroke="#333333" stroke-width="1.5" stroke-linecap="round" stroke-linejoin="round" stroke-miterlimit="10" cx="24.2" cy="18.6" rx="7.4" ry="4"/>
<path fill="none" stroke="#333333" stroke-width="1.5" stroke-linecap="round" stroke-linejoin="round" stroke-miterlimit="10" d="
	M21.9,11.6l-3.7,1.1c-2.1,0.6-2.9,4.3-1.7,8.2s3.8,6.5,6,5.9l3.7-1.1"/>
<path fill="none" stroke="#333333" stroke-width="1.5" stroke-linecap="round" stroke-linejoin="round" stroke-miterlimit="10" d="
	M1.1,11.2v3.9c0,2.2,3.3,4,7.4,4s7.4-1.8,7.4-4v-3.9"/>
<path fill="none" stroke="#333333" stroke-width="1.5" stroke-linecap="round" stroke-linejoin="round" stroke-miterlimit="10" d="
	M1.1,15.1v3.9c0,2.2,3.3,4,7.4,4s7.4-1.8,7.4-4v-3.9"/>
<path fill="none" stroke="#333333" stroke-width="1.5" stroke-linecap="round" stroke-linejoin="round" stroke-miterlimit="10" d="
	M1.1,19.1V23c0,2.2,3.3,4,7.4,4s7.4-1.8,7.4-4v-3.9"/>
</svg>
