<?xml version="1.0" encoding="utf-8"?>
<!-- Generator: Adobe Illustrator 19.0.1, SVG Export Plug-In . SVG Version: 6.00 Build 0)  -->
<svg version="1.1" id="Layer_1" xmlns="http://www.w3.org/2000/svg" xmlns:xlink="http://www.w3.org/1999/xlink" x="0px" y="0px"
	 viewBox="0 0 30 30" enable-background="new 0 0 30 30" xml:space="preserve">
<g>
	<line fill="none" stroke="#333333" stroke-miterlimit="10" x1="94.2" y1="11.6" x2="85.7" y2="11.6"/>
	<line fill="none" stroke="#333333" stroke-miterlimit="10" x1="89.9" y1="15.8" x2="90" y2="7.4"/>
</g>
<path fill="#333333" d="M99.3,11.7L99.3,11.7z"/>
<path fill="#333333" d="M80.8,11.6L80.8,11.6z"/>
<path fill="#333333" d="M86.1,3.9L86.1,3.9z"/>
<rect x="77.7" y="2" fill="none" stroke="#333333" stroke-miterlimit="10" width="24.9" height="20.3"/>
<rect x="82.2" y="-1.6" fill="none" stroke="#333333" stroke-miterlimit="10" width="15.7" height="3.6"/>
<line fill="none" stroke="#333333" stroke-miterlimit="10" x1="2" y1="27.5" x2="27" y2="27.5"/>
<path fill="none" stroke="#333333" stroke-miterlimit="10" d="M6.6,24.8c1.4-1.3,2.8-2.6,4.3-3.9l2.5,2.5l8.2-8.2V5"/>
<polyline fill="none" stroke="#333333" stroke-miterlimit="10" points="24.4,8 21.6,5.2 18.8,7.9 "/>
<line fill="none" stroke="#333333" stroke-miterlimit="10" x1="9.5" y1="15" x2="9.5" y2="27"/>
<line fill="none" stroke="#333333" stroke-miterlimit="10" x1="4.5" y1="15" x2="4.5" y2="27"/>
<line fill="none" stroke="#333333" stroke-miterlimit="10" x1="16.5" y1="18" x2="16.5" y2="27"/>
<line fill="none" stroke="#333333" stroke-miterlimit="10" x1="13.5" y1="6" x2="13.5" y2="27"/>
<line fill="none" stroke="#333333" stroke-miterlimit="10" x1="23.5" y1="12" x2="23.5" y2="27"/>
<line fill="none" stroke="#333333" stroke-miterlimit="10" x1="20.5" y1="22" x2="20.5" y2="27"/>
</svg>
