<?xml version="1.0" encoding="utf-8"?>
<!-- Generator: Adobe Illustrator 19.0.1, SVG Export Plug-In . SVG Version: 6.00 Build 0)  -->
<svg version="1.1" xmlns="http://www.w3.org/2000/svg" xmlns:xlink="http://www.w3.org/1999/xlink" x="0px" y="0px"
	 viewBox="0 0 30 30" style="enable-background:new 0 0 30 30;" xml:space="preserve">
<style type="text/css">
	.st0{fill:none;stroke:#078AD3;stroke-miterlimit:10;}
	.st1{display:none;}
	.st2{display:inline;}
	.st3{fill:none;stroke:#333333;stroke-width:2;stroke-miterlimit:10;}
</style>
<g id="Layer_1">
	<line class="st0" x1="15.1" y1="9.3" x2="15.1" y2="12.2"/>
	<g>
		<polyline class="st0" points="7.9,22.2 1.1,15.5 7.9,8.7 		"/>
		<line class="st0" x1="7.8" y1="9" x2="7.8" y2="21.9"/>
	</g>
	<g>
		<polyline class="st0" points="22.2,8.7 29,15.5 22.2,22.2 		"/>
		<line class="st0" x1="22.3" y1="21.9" x2="22.3" y2="9"/>
	</g>
	<line class="st0" x1="15.1" y1="13.9" x2="15.1" y2="16.8"/>
	<line class="st0" x1="15.1" y1="18.5" x2="15.1" y2="21.4"/>
	<g>
		<g>
			<path class="st0" d="M10,7.7c0-2.8,2.2-5,5-5s5,2.2,5,5"/>
			<line class="st0" x1="18.3" y1="6.3" x2="20.4" y2="7.9"/>
		</g>
		<line class="st0" x1="19.8" y1="7.8" x2="21.4" y2="5.8"/>
	</g>
	<g>
		<g>
			<path class="st0" d="M20.4,23c0,2.8-2.2,5-5,5s-5-2.2-5-5"/>
			<line class="st0" x1="12.1" y1="24.4" x2="10" y2="22.8"/>
		</g>
		<line class="st0" x1="10.7" y1="22.9" x2="9" y2="24.9"/>
	</g>
</g>
<g id="Layer_3" class="st1">
</g>
<g id="Layer_2" class="st1">
	<g class="st2">
		<g>
			<line class="st3" x1="8.6" y1="15.5" x2="11.1" y2="15.5"/>
			<line class="st3" x1="13.8" y1="15.5" x2="16.3" y2="15.5"/>
		</g>
		<g>
			<line class="st3" x1="8.6" y1="10.3" x2="11.1" y2="10.3"/>
			<line class="st3" x1="13.8" y1="10.3" x2="16.3" y2="10.3"/>
		</g>
		<g>
			<line class="st3" x1="8.6" y1="20.7" x2="11.1" y2="20.7"/>
			<line class="st3" x1="13.8" y1="20.7" x2="16.3" y2="20.7"/>
		</g>
		<line class="st3" x1="19" y1="15.5" x2="21.5" y2="15.5"/>
		<line class="st3" x1="19" y1="10.3" x2="21.5" y2="10.3"/>
		<line class="st3" x1="19" y1="20.7" x2="21.5" y2="20.7"/>
	</g>
</g>
</svg>
