<?xml version="1.0" encoding="utf-8"?>
<!-- Generator: Adobe Illustrator 18.1.0, SVG Export Plug-In . SVG Version: 6.00 Build 0)  -->
<svg version="1.1" id="Layer_1" xmlns="http://www.w3.org/2000/svg" xmlns:xlink="http://www.w3.org/1999/xlink" x="0px" y="0px"
	 viewBox="0 0 30 30" enable-background="new 0 0 30 30" xml:space="preserve">
<g>
	
		<line fill="none" stroke="#333333" stroke-width="1.5" stroke-linecap="round" stroke-linejoin="round" stroke-miterlimit="10" x1="15" y1="27.2" x2="15" y2="18.1"/>
	
		<polyline fill="none" stroke="#333333" stroke-width="1.5" stroke-linecap="round" stroke-linejoin="round" stroke-miterlimit="10" points="
		19.2,24 15,28.3 10.8,24 	"/>
</g>
<g>
	
		<line fill="none" stroke="#333333" stroke-width="1.5" stroke-linecap="round" stroke-linejoin="round" stroke-miterlimit="10" x1="5.2" y1="4.7" x2="25.5" y2="4.7"/>
	
		<line fill="none" stroke="#333333" stroke-width="1.5" stroke-linecap="round" stroke-linejoin="round" stroke-miterlimit="10" x1="5.2" y1="7.4" x2="25.5" y2="7.4"/>
	<path fill="none" stroke="#333333" stroke-width="1.5" stroke-linecap="round" stroke-linejoin="round" stroke-miterlimit="10" d="
		M14.6,15.6H24c0.8,0,1.5-0.7,1.5-1.5V3.3c0-0.8-0.7-1.5-1.5-1.5H6.7H6c-0.8,0-1.5,0.7-1.5,1.5v10.8c0,0.8,0.7,1.5,1.5,1.5H14.6z"/>
	
		<line fill="none" stroke="#333333" stroke-width="1.5" stroke-linecap="round" stroke-linejoin="round" stroke-miterlimit="10" x1="7.2" y1="10.4" x2="15" y2="10.4"/>
	
		<line fill="none" stroke="#333333" stroke-width="1.5" stroke-linecap="round" stroke-linejoin="round" stroke-miterlimit="10" x1="7.2" y1="12.6" x2="11.1" y2="12.6"/>
</g>
</svg>
