<?xml version="1.0" encoding="utf-8"?>
<!-- Generator: Adobe Illustrator 18.1.0, SVG Export Plug-In . SVG Version: 6.00 Build 0)  -->
<svg version="1.1" id="Layer_1" xmlns="http://www.w3.org/2000/svg" xmlns:xlink="http://www.w3.org/1999/xlink" x="0px" y="0px"
	 viewBox="0 0 20 20" enable-background="new 0 0 20 20" xml:space="preserve">
<g>
	
		<circle fill="none" stroke="#333333" stroke-width="1.5" stroke-linecap="round" stroke-linejoin="round" stroke-miterlimit="10" cx="10" cy="10" r="2.5"/>
	<path fill="none" stroke="#333333" stroke-width="1.5" stroke-linecap="round" stroke-linejoin="round" stroke-miterlimit="10" d="
		M18.7,7.7c-1,0.2-2.1-0.3-2.7-1.2c-0.6-1-0.4-2.1,0.3-2.9c-1.1-1.1-2.4-1.8-3.9-2.3c-0.3,1-1.3,1.7-2.4,1.7c-1.1,0-2-0.7-2.4-1.7
		C6.1,1.8,4.8,2.6,3.7,3.6c0.7,0.8,0.8,2,0.3,2.9c-0.6,1-1.6,1.4-2.7,1.2C1.2,8.5,1,9.2,1,10c0,0.8,0.1,1.5,0.3,2.3
		c1-0.2,2.1,0.3,2.7,1.2c0.6,1,0.4,2.1-0.3,2.9c1.1,1.1,2.4,1.8,3.9,2.3c0.3-1,1.3-1.7,2.4-1.7c1.1,0,2,0.7,2.4,1.7
		c1.5-0.4,2.8-1.2,3.9-2.3c-0.7-0.8-0.8-2-0.3-2.9c0.6-1,1.6-1.4,2.7-1.2c0.2-0.7,0.3-1.5,0.3-2.3C19,9.2,18.8,8.5,18.7,7.7z"/>
</g>
</svg>
