<?xml version="1.0" encoding="utf-8"?>
<!-- Generator: Adobe Illustrator 19.0.1, SVG Export Plug-In . SVG Version: 6.00 Build 0)  -->
<svg version="1.0" id="Layer_1" xmlns="http://www.w3.org/2000/svg" xmlns:xlink="http://www.w3.org/1999/xlink" x="0px" y="0px"
	 viewBox="0 2 30 30" enable-background="new 0 2 30 30" xml:space="preserve">
<path fill="none" stroke="#333333" stroke-linecap="round" stroke-linejoin="round" stroke-miterlimit="10" d="M12.6,8.6"/>
<g>
	<path fill="none" stroke="#333333" stroke-linecap="round" stroke-linejoin="round" stroke-miterlimit="10" d="M6.7,11.8
		c-1.1,0-2-0.9-2-2s0.9-2,2-2s2,0.9,2,2S7.8,11.8,6.7,11.8"/>
	<polyline fill="none" stroke="#333333" stroke-linecap="round" stroke-linejoin="round" stroke-miterlimit="10" points="4.6,13.3 
		4,14.1 4,17.2 4,18.4 9.3,18.4 9.3,17.2 9.3,14.1 8.6,13.3 	"/>
	<path fill="none" stroke="#333333" stroke-linecap="round" stroke-linejoin="round" stroke-miterlimit="10" d="M14,13.9
		c-0.9,0-1.5-0.7-1.5-1.5c0-0.9,0.7-1.5,1.5-1.5s1.5,0.7,1.5,1.5S14.8,13.9,14,13.9"/>
	<polyline fill="none" stroke="#333333" stroke-linecap="round" stroke-linejoin="round" stroke-miterlimit="10" points="12.6,15.2 
		12,15.8 12,17.5 12,18.4 16,18.4 16,17.5 16,15.8 15.5,15.2 	"/>
</g>
<polygon fill="none" stroke="#333333" stroke-linecap="round" stroke-linejoin="round" stroke-miterlimit="10" points="29,8.7 
	29,33 1.1,33 1.1,5.2 13.2,5.2 13.2,8.7 "/>
<g>
	
		<line fill="none" stroke="#333333" stroke-linecap="round" stroke-linejoin="round" stroke-miterlimit="10" x1="11.1" y1="24" x2="11.1" y2="29.5"/>
	
		<line fill="none" stroke="#333333" stroke-linecap="round" stroke-linejoin="round" stroke-miterlimit="10" x1="11.3" y1="26.9" x2="13.6" y2="26.9"/>
	
		<line fill="none" stroke="#333333" stroke-linecap="round" stroke-linejoin="round" stroke-miterlimit="10" x1="11.3" y1="23.9" x2="13.5" y2="23.9"/>
	<path fill="none" stroke="#333333" stroke-linecap="round" stroke-linejoin="round" stroke-miterlimit="10" d="M13.8,26.8
		c0.7-0.8,0.7-2.3-0.2-2.9"/>
	
		<line fill="none" stroke="#333333" stroke-linecap="round" stroke-linejoin="round" stroke-miterlimit="10" x1="17.8" y1="23.7" x2="16" y2="28.7"/>
	
		<line fill="none" stroke="#333333" stroke-linecap="round" stroke-linejoin="round" stroke-miterlimit="10" x1="20.2" y1="23.8" x2="23.2" y2="23.8"/>
	
		<line fill="none" stroke="#333333" stroke-linecap="round" stroke-linejoin="round" stroke-miterlimit="10" x1="20.1" y1="26.5" x2="23.3" y2="26.5"/>
	
		<line fill="none" stroke="#333333" stroke-linecap="round" stroke-linejoin="round" stroke-miterlimit="10" x1="23.3" y1="29" x2="20.1" y2="29"/>
	<path fill="none" stroke="#333333" stroke-linecap="round" stroke-linejoin="round" stroke-miterlimit="10" d="M20,23.9
		c-0.7,0.8-0.7,2,0,2.6"/>
	<path fill="none" stroke="#333333" stroke-linecap="round" stroke-linejoin="round" stroke-miterlimit="10" d="M23.5,29.1
		c0.7-0.8,0.7-2,0-2.6"/>
</g>
<rect x="7.9" y="20.9" fill="none" stroke="#333333" stroke-linecap="round" stroke-linejoin="round" stroke-miterlimit="10" width="18.4" height="10"/>
</svg>
