<?xml version="1.0" encoding="utf-8"?>
<!-- Generator: Adobe Illustrator 18.1.0, SVG Export Plug-In . SVG Version: 6.00 Build 0)  -->
<svg version="1.1" id="Layer_1" xmlns="http://www.w3.org/2000/svg" xmlns:xlink="http://www.w3.org/1999/xlink" x="0px" y="0px"
	 viewBox="0 0 30 30" enable-background="new 0 0 30 30" xml:space="preserve">
<path fill="none" stroke="#333333" stroke-width="1.5" stroke-linecap="round" stroke-linejoin="round" stroke-miterlimit="10" d="
	M20.4,14.4H9.6c-0.8,0-1.5-0.7-1.5-1.5V8.1c0-0.8,0.7-1.5,1.5-1.5h10.8c0.8,0,1.5,0.7,1.5,1.5v4.8C21.9,13.7,21.2,14.4,20.4,14.4z"
	/>
<g>
	
		<line fill="none" stroke="#333333" stroke-width="1.5" stroke-linecap="round" stroke-linejoin="round" stroke-miterlimit="10" x1="8.8" y1="21.2" x2="11.3" y2="21.2"/>
	
		<line fill="none" stroke="#333333" stroke-width="1.5" stroke-linecap="round" stroke-linejoin="round" stroke-miterlimit="10" x1="18.7" y1="21.2" x2="21.2" y2="21.2"/>
</g>
<polyline fill="none" stroke="#333333" stroke-width="1.5" stroke-linecap="round" stroke-linejoin="round" stroke-miterlimit="10" points="
	10.7,3.8 10.7,1.2 19.3,1.2 19.3,3.5 "/>
<path fill="none" stroke="#333333" stroke-width="1.5" stroke-linecap="round" stroke-linejoin="round" stroke-miterlimit="10" d="
	M23.3,25.1H6.7c-0.8,0-1.5-0.7-1.5-1.5V5.3c0-0.8,0.7-1.5,1.5-1.5h16.6c0.8,0,1.5,0.7,1.5,1.5v18.3C24.8,24.4,24.1,25.1,23.3,25.1z"
	/>
<g>
	
		<rect x="8.4" y="25.1" fill="none" stroke="#333333" stroke-width="1.5" stroke-linecap="round" stroke-linejoin="round" stroke-miterlimit="10" width="3.7" height="3.8"/>
	
		<rect x="17.9" y="25.1" fill="none" stroke="#333333" stroke-width="1.5" stroke-linecap="round" stroke-linejoin="round" stroke-miterlimit="10" width="3.7" height="3.8"/>
</g>
</svg>
