<?xml version="1.0" encoding="utf-8"?>
<!-- Generator: Adobe Illustrator 19.0.1, SVG Export Plug-In . SVG Version: 6.00 Build 0)  -->
<svg version="1.2" baseProfile="tiny" xmlns="http://www.w3.org/2000/svg" xmlns:xlink="http://www.w3.org/1999/xlink" x="0px"
	 y="0px" viewBox="0 0 30 30" xml:space="preserve">
<g id="Layer_1" display="none">
	
		<path display="inline" fill="none" stroke="#333333" stroke-width="1.5" stroke-linecap="round" stroke-linejoin="round" stroke-miterlimit="10" d="
		M81.7,19.7"/>
	
		<path display="inline" fill="none" stroke="#333333" stroke-width="1.5" stroke-linecap="round" stroke-linejoin="round" stroke-miterlimit="10" d="
		M54.5,19.7"/>
	
		<rect x="54.8" y="11.5" display="inline" fill="none" stroke="#333333" stroke-width="1.5" stroke-linecap="round" stroke-linejoin="round" stroke-miterlimit="10" width="26.1" height="27.7"/>
	<path display="inline" fill="#333333" d="M94.3,30.2h0.3c0.2,0,0.5,0.2,0.5,0.5s-0.2,0.5-0.5,0.5h-0.3c-0.2,0-0.5-0.2-0.5-0.5
		S94,30.2,94.3,30.2z M93.1,29.3h0.5c0.2,0,0.5-0.2,0.5-0.5s-0.2-0.5-0.5-0.5h-0.5c-0.2,0-0.5,0.2-0.5,0.5S92.8,29.3,93.1,29.3z
		 M95.3,29.3h0.5c0.2,0,0.5-0.2,0.5-0.5s-0.2-0.5-0.5-0.5h-0.5c-0.2,0-0.5,0.2-0.5,0.5S95,29.3,95.3,29.3z M101,28.7
		c0,0,0.1,0.1,0.1,0.1c0.1,0,0.1,0,0.2,0c0,0,0,0,0,0c0.1,0,0.1,0,0.2,0c0,0,0.1-0.1,0.1-0.1c0,0,0.1-0.1,0.1-0.1l1.9-3.3
		c0.1-0.2,0.1-0.5-0.2-0.6c-0.2-0.1-0.5-0.1-0.6,0.2l-1.5,2.6l-0.6-0.9c-0.1-0.2-0.4-0.3-0.6-0.2c-0.2,0.1-0.3,0.4-0.2,0.6L101,28.7
		C100.9,28.7,100.9,28.7,101,28.7z M104.4,22.6h-5.3c-1.1,0-1.9,0.9-1.9,1.9c0,0.2,0.2,0.5,0.5,0.5c0.2,0,0.5-0.2,0.5-0.4
		c0-0.6,0.5-1,1-1h5.3c0.6,0,1.1,0.5,1.1,1v4.4c0,0.6-0.5,1-1.1,1H100c-0.1,0-0.3,0.1-0.4,0.2l-1.5,2c-0.1,0.2-0.1,0.5,0.1,0.6
		c0.1,0.1,0.2,0.1,0.3,0.1c0.1,0,0.3-0.1,0.4-0.2l1.4-1.8h4.2c1.1,0,2-0.9,2-1.9v-4.4C106.4,23.5,105.5,22.6,104.4,22.6z
		 M100.6,41.4L99.3,36c-0.3-1.2-1.7-2.2-3.3-2.2H96c-0.2,0-0.4,0.1-0.4,0.3c-0.1,0.3-0.5,0.6-1.1,0.6s-1-0.3-1.1-0.6
		c-0.1-0.2-0.2-0.3-0.4-0.3h-0.1c-1.5,0-3,1-3.3,2.2l-1.3,5.5c0,0,0,0,0,0.1c0,0.1,0,0.1,0,0.2c0,0,0,0.1,0.1,0.1
		c0.1,0.1,0.1,0.1,0.2,0.2c0,0,0,0,0.1,0c0,0,0.1,0,0.1,0h3.8c0.2,0,0.5-0.2,0.5-0.5c0-0.2-0.2-0.5-0.5-0.5h-3.2l1.2-4.9
		c0.2-0.8,1.2-1.4,2.2-1.5c0.3,0.6,1.1,0.9,1.8,0.9s1.5-0.4,1.8-0.9c1,0.1,2,0.7,2.2,1.5l1.2,4.9h-3.2c-0.2,0-0.5,0.2-0.5,0.5
		c0,0.2,0.2,0.5,0.5,0.5h3.8c0,0,0,0,0,0c0,0,0.1,0,0.1,0c0,0,0,0,0,0c0.1,0,0.2-0.1,0.2-0.2c0,0,0-0.1,0.1-0.1
		C100.7,41.6,100.7,41.6,100.6,41.4C100.7,41.5,100.6,41.5,100.6,41.4z M89.9,28.5c0-0.2,0.2-0.5,0.4-0.5c0.1,0,0.2,0,0.2,0
		c0.4-1.7,2-3.1,3.8-3.1c1,0,1.9,0.4,2.6,1c0,0,0,0,0.1,0c0,0,0,0,0,0c0.6,0.5,1,1.2,1.1,2c0.1,0,0.1,0,0.2,0c0.2,0,0.4,0.2,0.4,0.5
		l-0.1,0.7c0,0.2-0.2,0.4-0.5,0.4c0,0,0,0,0,0c-0.3,1.8-1.9,3.2-3.9,3.2c-1.9,0-3.5-1.4-3.9-3.2c0,0,0,0,0,0c-0.3,0-0.5-0.2-0.5-0.4
		L89.9,28.5z M96,26.4c-0.5-0.3-1-0.5-1.6-0.5c-1.7,0-3,1.4-3,3c0,1.7,1.4,3,3,3c1.7,0,3-1.4,3-3c0-0.7-0.3-1.4-0.7-1.9"/>
	
		<circle display="inline" fill="none" stroke="#333333" stroke-linecap="round" stroke-linejoin="round" stroke-miterlimit="10" cx="68.1" cy="17.7" r="2.7"/>
	<path display="inline" fill="none" stroke="#333333" stroke-linecap="round" stroke-linejoin="round" stroke-miterlimit="10" d="
		M72.7,25c0-2.5-2-4.5-4.5-4.5s-4.5,2-4.5,4.5H72.7z"/>
	
		<line display="inline" fill="none" stroke="#333333" stroke-linecap="round" stroke-linejoin="round" stroke-miterlimit="10" x1="60.2" y1="29.9" x2="76.4" y2="29.9"/>
	
		<line display="inline" fill="none" stroke="#333333" stroke-linecap="round" stroke-linejoin="round" stroke-miterlimit="10" x1="60.1" y1="34.3" x2="76.4" y2="34.3"/>
	
		<line display="inline" fill="none" stroke="#333333" stroke-linecap="round" stroke-linejoin="round" stroke-miterlimit="10" x1="59.9" y1="30" x2="59.9" y2="34"/>
	
		<line display="inline" fill="none" stroke="#333333" stroke-linecap="round" stroke-linejoin="round" stroke-miterlimit="10" x1="76.4" y1="29.9" x2="76.4" y2="34.3"/>
	<g display="inline">
		<path fill="#FFFFFF" stroke="#000000" stroke-width="0.75" stroke-miterlimit="10" d="M3.4,8.1L3.4,8.1v15.8
			c0,0.3,0.3,0.6,0.6,0.6h10.9c0,0,0,0,0.1,0c0,0,0,0,0.1,0c0.3,0,0.6-0.3,0.6-0.6v-4.6h0.5c0.3,0,0.6-0.3,0.6-0.6
			c0-0.3-0.3-0.6-0.6-0.6h-0.5v-4h4.3V14c0,0.3,0.3,0.6,0.6,0.6c0.3,0,0.6-0.3,0.6-0.6V14h4.3v0.9c0,0.3,0.3,0.6,0.6,0.6
			s0.6-0.3,0.6-0.6V8.1c0-0.3-0.3-0.6-0.6-0.6H4C3.7,7.5,3.4,7.8,3.4,8.1z"/>
		<rect x="10.2" y="19.3" fill="#FFFFFF" stroke="#000000" stroke-width="0.75" stroke-miterlimit="10" width="4.3" height="4"/>
		<rect x="10.2" y="14" fill="#FFFFFF" stroke="#000000" stroke-width="0.75" stroke-miterlimit="10" width="4.3" height="4"/>
		<path fill="#FFFFFF" stroke="#000000" stroke-width="0.75" stroke-miterlimit="10" d="M8.9,12.7v-2.6c0-0.3,0.3-0.6,0.6-0.6
			c0.3,0,0.6,0.3,0.6,0.6v2.6h4.3v-2.6c0-0.3,0.3-0.6,0.6-0.6c0.3,0,0.6,0.3,0.6,0.6v2.6h4.3v-2.6c0-0.3,0.3-0.6,0.6-0.6
			c0.3,0,0.6,0.3,0.6,0.6v2.6h4.3v-4H4.7v4H8.9z"/>
		<rect x="4.7" y="19.3" fill="#FFFFFF" stroke="#000000" stroke-width="0.75" stroke-miterlimit="10" width="4.3" height="4"/>
		<rect x="4.7" y="14" fill="#FFFFFF" stroke="#000000" stroke-width="0.75" stroke-miterlimit="10" width="4.3" height="4"/>
		<path fill="#FFFFFF" stroke="#000000" stroke-width="0.75" stroke-miterlimit="10" d="M22.6,19.4c-0.3,0-0.6,0.3-0.6,0.6v2.5
			c0,0.1,0,0.2,0.1,0.2c0,0.1,0.1,0.1,0.1,0.2c0.1,0.1,0.1,0.1,0.2,0.1c0,0,0,0,0,0c0,0,0,0,0,0c0.1,0,0.1,0,0.2,0c0,0,0,0,0,0
			c0,0,0,0,0,0c0,0,0,0,0,0c0,0,0,0,0,0c0.1,0,0.1,0,0.2,0c0.1,0,0.1-0.1,0.2-0.1l1.3-1.3c0.2-0.2,0.2-0.6,0-0.9
			c-0.2-0.2-0.6-0.2-0.9,0L23.3,21v-1C23.3,19.7,23,19.4,22.6,19.4z"/>
		<path fill="#FFFFFF" stroke="#000000" stroke-width="0.75" stroke-miterlimit="10" d="M17,22.3c0,3.1,2.5,5.7,5.7,5.7
			c3.1,0,5.7-2.5,5.7-5.7c0-1.4-0.5-2.7-1.3-3.6l0.3-0.3c0.2-0.2,0.2-0.6,0-0.9c-0.2-0.2-0.6-0.2-0.9,0l-0.3,0.3
			c-0.4-0.3-0.9-0.6-1.4-0.8c0.1-0.1,0.1-0.2,0.1-0.4c0-0.3-0.3-0.6-0.6-0.6h-3c-0.3,0-0.6,0.3-0.6,0.6c0,0.1,0,0.3,0.1,0.4
			C18.5,17.8,17,19.9,17,22.3z"/>
		<path fill="#FFFFFF" stroke="#000000" stroke-width="0.75" stroke-miterlimit="10" d="M18.2,22.3c0,2.4,2,4.4,4.4,4.4
			c2.4,0,4.4-2,4.4-4.4c0-2.4-2-4.4-4.4-4.4C20.2,17.9,18.2,19.9,18.2,22.3z"/>
		<path fill="#FFFFFF" stroke="#000000" stroke-width="0.75" stroke-miterlimit="10" d="M3.4,4.2v1.5c0,0.3,0.3,0.6,0.6,0.6
			c0.3,0,0.6-0.3,0.6-0.6V4.8h4.3v0.4c0,0.3,0.3,0.6,0.6,0.6c0.3,0,0.6-0.3,0.6-0.6V4.8h9.8v0.4c0,0.3,0.3,0.6,0.6,0.6
			c0.3,0,0.6-0.3,0.6-0.6V4.8h4.3v0.9c0,0.3,0.3,0.6,0.6,0.6s0.6-0.3,0.6-0.6V4.2c0-0.3-0.3-0.6-0.6-0.6h-4.9V3.1
			c0-0.3-0.3-0.6-0.6-0.6c-0.3,0-0.6,0.3-0.6,0.6v0.5h-9.8V3.1c0-0.3-0.3-0.6-0.6-0.6c-0.3,0-0.6,0.3-0.6,0.6v0.5H4
			C3.7,3.6,3.4,3.8,3.4,4.2z"/>
	</g>
</g>
<g id="Layer_2">
	<line fill="none" stroke="#0384E5" stroke-miterlimit="10" x1="3.9" y1="4.4" x2="25.9" y2="4.4"/>
	<line fill="none" stroke="#0384E5" stroke-miterlimit="10" x1="25.9" y1="4.4" x2="25.9" y2="5.9"/>
	<line fill="none" stroke="#0384E5" stroke-miterlimit="10" x1="4.1" y1="4.2" x2="4.1" y2="6"/>
	<line fill="none" stroke="#0384E5" stroke-miterlimit="10" x1="9.1" y1="2.5" x2="9.1" y2="5.4"/>
	<line fill="none" stroke="#0384E5" stroke-miterlimit="10" x1="20.2" y1="2.9" x2="20.2" y2="5.4"/>
	<line fill="none" stroke="#0384E5" stroke-miterlimit="10" x1="3.7" y1="24.3" x2="15.5" y2="24.3"/>
	<line fill="none" stroke="#0384E5" stroke-miterlimit="10" x1="15" y1="24.3" x2="15" y2="8.2"/>
	<line fill="none" stroke="#0384E5" stroke-miterlimit="10" x1="25.9" y1="15.3" x2="25.9" y2="8.1"/>
	<g id="XMLID_1_">
		<g>
		</g>
		<g>
			<line fill="none" stroke="#0384E5" stroke-miterlimit="10" x1="4.2" y1="8.1" x2="4.2" y2="24.3"/>
			<line fill="none" stroke="#0384E5" stroke-miterlimit="10" x1="25.9" y1="8.1" x2="4.4" y2="8.1"/>
		</g>
	</g>
	<line fill="none" stroke="#0384E5" stroke-miterlimit="10" x1="4.3" y1="13.3" x2="14.8" y2="13.3"/>
	<line fill="none" stroke="#0384E5" stroke-miterlimit="10" x1="4.3" y1="18.8" x2="14.9" y2="18.8"/>
	<line fill="none" stroke="#0384E5" stroke-miterlimit="10" x1="9.9" y1="7.9" x2="9.9" y2="24.4"/>
	<line fill="none" stroke="#0384E5" stroke-miterlimit="10" x1="14.3" y1="13.3" x2="25.8" y2="13.3"/>
	<line fill="none" stroke="#0384E5" stroke-miterlimit="10" x1="14.7" y1="18.8" x2="16.6" y2="18.8"/>
	<circle fill="none" stroke="#0384E5" stroke-miterlimit="10" cx="22.5" cy="22.6" r="4.6"/>
	<line fill="none" stroke="#0384E5" stroke-miterlimit="10" x1="20.6" y1="17.6" x2="24.8" y2="17.6"/>
	<line fill="none" stroke="#0384E5" stroke-miterlimit="10" x1="25.9" y1="19.3" x2="26.8" y2="18.4"/>
	<path fill="none" stroke="#0384E5" stroke-miterlimit="10" d="M23.8,20.8c-0.5,0.6-1.1,1.2-1.6,1.9c0.7,0.7,1.5,1.4,2.1,2.2"/>
	<line fill="none" stroke="#0384E5" stroke-miterlimit="10" x1="19.8" y1="16.9" x2="25.3" y2="16.9"/>
	<line fill="none" stroke="#0384E5" stroke-miterlimit="10" x1="22.6" y1="16.5" x2="22.6" y2="16"/>
</g>
</svg>
