<?xml version="1.0" encoding="utf-8"?>
<!-- Generator: Adobe Illustrator 18.1.0, SVG Export Plug-In . SVG Version: 6.00 Build 0)  -->
<svg version="1.1" id="Layer_1" xmlns="http://www.w3.org/2000/svg" xmlns:xlink="http://www.w3.org/1999/xlink" x="0px" y="0px"
	 viewBox="0 0 20 20" enable-background="new 0 0 20 20" xml:space="preserve">
<g>
	
		<rect x="5.7" y="7.3" fill="none" stroke="#666" stroke-width="1.5" stroke-linecap="round" stroke-linejoin="round" stroke-miterlimit="10" width="13.1" height="11.6"/>
	<path fill="none" stroke="#666" stroke-width="1.5" stroke-linecap="round" stroke-linejoin="round" stroke-miterlimit="10" d="
		M14,11.9c0-0.9-0.8-1.7-1.7-1.7c-0.9,0-1.7,0.8-1.7,1.7c0,0.5,0.2,0.9,0.5,1.2v2.7h2.3v-2.7C13.8,12.8,14,12.4,14,11.9z"/>
	<path fill="none" stroke="#666" stroke-width="1.5" stroke-linecap="round" stroke-linejoin="round" stroke-miterlimit="10" d="
		M7.8,6.8V5.9c0-1.1-0.9-2-2-2c-1.1,0-2,0.9-2,2v0.9H1.2V5.8c0-2.5,2.1-4.6,4.6-4.6c2.5,0,4.6,2.1,4.6,4.6v1.4"/>
</g>
</svg>
